<?xml version="1.0" standalone="no"?>
<!DOCTYPE svg PUBLIC "-//W3C//DTD SVG 20010904//EN"
 "http://www.w3.org/TR/2001/REC-SVG-20010904/DTD/svg10.dtd">
<svg version="1.0" xmlns="http://www.w3.org/2000/svg"
 width="1949.000000pt" height="1040.000000pt" viewBox="0 0 1949.000000 1040.000000"
 preserveAspectRatio="xMidYMid meet">

<g transform="translate(0.000000,1040.000000) scale(0.100000,-0.100000)"
fill="#000000" stroke="none">
<path d="M8024 9782 c-1573 -1081 -2328 -1599 -2351 -1613 l-23 -14 0 -1833
c0 -1513 2 -1833 13 -1829 7 3 342 222 743 488 401 265 860 569 1019 674 160
105 459 303 665 440 206 137 507 335 668 441 l292 193 0 1836 0 1835 -64 0
-63 0 -899 -618z"/>
<path d="M9570 8562 l0 -1839 293 -195 c160 -108 576 -388 922 -623 347 -235
707 -478 800 -542 94 -63 244 -165 335 -226 91 -62 271 -184 400 -271 129 -88
296 -201 370 -251 74 -51 141 -95 148 -99 9 -6 12 360 12 1816 l0 1823 -503
356 c-623 441 -1437 1019 -2132 1512 l-530 376 -57 1 -58 0 0 -1838z"/>
<path d="M8728 5742 c-168 -108 -930 -593 -1692 -1077 l-1385 -880 0 -1152
c-1 -634 -4 -1153 -9 -1153 -4 0 -117 27 -252 59 -1009 244 -2028 591 -2905
989 -214 97 -270 124 -524 251 -591 296 -1161 636 -1661 989 -74 53 -151 106
-170 120 -82 56 373 -373 640 -605 293 -254 756 -611 1093 -843 1970 -1355
4330 -2187 6787 -2394 450 -38 537 -41 1260 -41 763 0 878 5 1400 55 2709 263
5259 1266 7290 2868 377 297 895 757 888 787 -2 7 -105 -56 -238 -144 -1686
-1123 -3811 -1919 -6154 -2306 -115 -19 -218 -35 -228 -35 -17 0 -18 44 -18
1253 l0 1252 -128 86 c-347 233 -1418 954 -1567 1056 -93 63 -305 206 -470
318 -165 112 -480 325 -700 473 -274 186 -402 267 -407 259 -4 -7 -8 -1026 -8
-2264 l0 -2253 23 -5 c12 -3 364 -63 782 -134 418 -71 847 -144 952 -162 106
-18 192 -34 190 -35 -3 -3 -392 -30 -662 -46 -301 -17 -1563 -17 -1870 0 -368
21 -761 50 -1030 78 -287 29 -716 82 -723 89 -3 3 2 5 10 5 9 0 384 36 834 80
451 43 854 82 897 86 l77 7 0 2283 c0 1256 -3 2284 -7 2284 -5 -1 -146 -89
-315 -198z"/>
</g>
</svg>
